<?xml version="1.0" encoding="UTF-8" standalone="no"?>
<svg
   xmlns:dc="http://purl.org/dc/elements/1.1/"
   xmlns:cc="http://creativecommons.org/ns#"
   xmlns:rdf="http://www.w3.org/1999/02/22-rdf-syntax-ns#"
   xmlns:svg="http://www.w3.org/2000/svg"
   xmlns="http://www.w3.org/2000/svg"
   xmlns:sodipodi="http://sodipodi.sourceforge.net/DTD/sodipodi-0.dtd"
   xmlns:inkscape="http://www.inkscape.org/namespaces/inkscape"
   width="43mm"
   height="34.43988mm"
   viewBox="0 0 43 34.43988"
   version="1.1"
   id="svg1010"
   sodipodi:docname="logo2.svg"
   inkscape:version="0.92.5 (2060ec1f9f, 2020-04-08)">
  <defs
     id="defs1004" />
  <sodipodi:namedview
     id="base"
     pagecolor="#ffffff"
     bordercolor="#666666"
     borderopacity="1.0"
     inkscape:pageopacity="0.0"
     inkscape:pageshadow="2"
     inkscape:zoom="2.8284271"
     inkscape:cx="160.77828"
     inkscape:cy="41.535803"
     inkscape:document-units="mm"
     inkscape:current-layer="layer1"
     inkscape:document-rotation="0"
     showgrid="false"
     inkscape:window-width="1920"
     inkscape:window-height="1016"
     inkscape:window-x="0"
     inkscape:window-y="27"
     inkscape:window-maximized="1"
     fit-margin-top="0"
     fit-margin-left="0"
     fit-margin-right="0"
     fit-margin-bottom="0"
     inkscape:snap-page="true"
     inkscape:snap-grids="true"
     inkscape:snap-center="false"
     showguides="false" />
  <metadata
     id="metadata1007">
    <rdf:RDF>
      <cc:Work
         rdf:about="">
        <dc:format>image/svg+xml</dc:format>
        <dc:type
           rdf:resource="http://purl.org/dc/dcmitype/StillImage" />
        <dc:title></dc:title>
      </cc:Work>
    </rdf:RDF>
  </metadata>
  <g
     inkscape:label="Layer 1"
     inkscape:groupmode="layer"
     id="layer1"
     transform="translate(-50.938453,-60.912435)"
     style="opacity:1">
    <path
       d="m 66.041153,69.898736 v 25.51183 H 52.560455 v -29.03961 l 9.657997,0.16934 v 2.6543 l 3.822701,0.70414"
       style="fill:#3b5681;fill-opacity:1;fill-rule:nonzero;stroke:none;stroke-width:0.0352777"
       id="path284"
       inkscape:connector-curvature="0" />
    <path
       d="m 61.319927,69.940366 v -1.6757 c -0.159808,0.0243 -0.321027,0.042 -0.4953,0.0448 -2.459214,0.0102 -4.913488,0.12065 -7.370233,0.18839 v 26.91271 H 65.14439 v -24.765 l -3.824463,-0.7052"
       style="fill:#3b5681;fill-opacity:1;fill-rule:nonzero;stroke:none;stroke-width:0.0352777"
       id="path286"
       inkscape:connector-curvature="0" />
    <path
       d="m 54.861272,92.716406 1.272822,-0.0878 -0.0056,-23.34437 -1.272823,0.0854 0.0056,23.34684"
       style="fill:#f2f2f4;fill-opacity:1;fill-rule:nonzero;stroke:none;stroke-width:0.0352777"
       id="path288"
       inkscape:connector-curvature="0" />
    <path
       d="m 57.102469,92.607396 1.27635,-0.0875 -0.0078,-23.34189 -1.273528,0.0836 0.0049,23.34577"
       style="fill:#f2f2f4;fill-opacity:1;fill-rule:nonzero;stroke:none;stroke-width:0.0352777"
       id="path290"
       inkscape:connector-curvature="0" />
    <path
       d="m 59.349663,92.500856 1.270353,-0.0885 -0.0053,-23.3419 -1.275998,0.0829 0.01094,23.34754"
       style="fill:#f2f2f4;fill-opacity:1;fill-rule:nonzero;stroke:none;stroke-width:0.0352777"
       id="path292"
       inkscape:connector-curvature="0" />
    <path
       d="m 83.716023,95.341416 v -21.40373 l -10.773126,-2.97215 v 24.5745 l 10.773126,-0.19862"
       style="fill:#3b5681;fill-opacity:1;fill-rule:nonzero;stroke:none;stroke-width:0.0352777"
       id="path294"
       inkscape:connector-curvature="0" />
    <path
       d="m 67.609603,72.932276 v 6.39057 l -4.573412,1.61713 v 14.46424 l 9.906706,0.13582 v -24.5745 l -5.333294,1.96674"
       style="fill:#3b5681;fill-opacity:1;fill-rule:nonzero;stroke:none;stroke-width:0.0352777"
       id="path296"
       inkscape:connector-curvature="0" />
    <path
       d="m 88.705715,61.100456 v 34.25719 h -6.107292 v -33.10466 l 6.107292,-1.15253"
       style="fill:#3b5681;fill-opacity:1;fill-rule:nonzero;stroke:none;stroke-width:0.0352777"
       id="path298"
       inkscape:connector-curvature="0" />
    <path
       d="m 83.569973,95.357646 v -32.29892 l 4.165602,-0.78387 v 33.08279 h -4.165602"
       style="fill:#3b5681;fill-opacity:1;fill-rule:nonzero;stroke:none;stroke-width:0.0352777"
       id="path300"
       inkscape:connector-curvature="0" />
    <path
       d="m 93.821785,95.352314 -5.11607,0.0053 V 61.100159 l 5.1114,0.86078 v 30.30573 l 0.008,1.821381"
       style="fill:#3b5681;fill-opacity:1;fill-rule:nonzero;stroke:none;stroke-width:0.0352777"
       id="path302"
       inkscape:connector-curvature="0"
       sodipodi:nodetypes="cccccc" />
    <path
       d="m 54.141252,95.369296 v -28.39368 l -3.16618,-4.32929 -0.0083,30.027959 0.0067,2.740338 3.166667,-0.01432"
       style="fill:#3b5681;fill-opacity:1;fill-rule:nonzero;stroke:none;stroke-width:0.0352777"
       id="path304"
       inkscape:connector-curvature="0"
       sodipodi:nodetypes="cccccc" />
    <path
       d="m 84.88654,69.504686 h 1.803055 v -1.80411 H 84.88654 v 1.80411"
       style="fill:#f2f2f4;fill-opacity:1;fill-rule:nonzero;stroke:none;stroke-width:0.0352777"
       id="path306"
       inkscape:connector-curvature="0" />
    <path
       d="m 84.88654,73.572566 h 1.803055 v -1.80693 H 84.88654 v 1.80693"
       style="fill:#f2f2f4;fill-opacity:1;fill-rule:nonzero;stroke:none;stroke-width:0.0352777"
       id="path308"
       inkscape:connector-curvature="0" />
    <path
       d="m 84.88654,77.636206 h 1.803055 v -1.80093 H 84.88654 v 1.80093"
       style="fill:#f2f2f4;fill-opacity:1;fill-rule:nonzero;stroke:none;stroke-width:0.0352777"
       id="path310"
       inkscape:connector-curvature="0" />
    <path
       d="m 84.88654,81.704096 h 1.803055 v -1.80376 H 84.88654 v 1.80376"
       style="fill:#f2f2f4;fill-opacity:1;fill-rule:nonzero;stroke:none;stroke-width:0.0352777"
       id="path312"
       inkscape:connector-curvature="0" />
    <path
       d="m 84.88654,85.768096 h 1.803055 v -1.80164 H 84.88654 v 1.80164"
       style="fill:#f2f2f4;fill-opacity:1;fill-rule:nonzero;stroke:none;stroke-width:0.0352777"
       id="path314"
       inkscape:connector-curvature="0" />
    <path
       d="m 84.88654,89.833146 h 1.803055 v -1.80269 H 84.88654 v 1.80269"
       style="fill:#f2f2f4;fill-opacity:1;fill-rule:nonzero;stroke:none;stroke-width:0.0352777"
       id="path316"
       inkscape:connector-curvature="0" />
    <path
       d="m 70.92924,74.122196 -1.381477,0.30726 0.0081,1.82316 1.383242,-0.30692 -0.0099,-1.8235"
       style="fill:#f2f2f4;fill-opacity:1;fill-rule:nonzero;stroke:none;stroke-width:0.0352777"
       id="path318"
       inkscape:connector-curvature="0" />
    <path
       d="m 70.95182,78.237346 -1.385713,0.30445 0.01024,1.82738 1.383948,-0.3048 -0.0085,-1.82703"
       style="fill:#f2f2f4;fill-opacity:1;fill-rule:nonzero;stroke:none;stroke-width:0.0352777"
       id="path320"
       inkscape:connector-curvature="0" />
    <path
       d="m 70.972632,82.353556 -1.38571,0.30409 0.01236,1.82281 1.3843,-0.30516 -0.01093,-1.82174"
       style="fill:#f2f2f4;fill-opacity:1;fill-rule:nonzero;stroke:none;stroke-width:0.0352777"
       id="path322"
       inkscape:connector-curvature="0" />
    <path
       d="m 70.993095,86.465176 -1.383242,0.30622 0.01058,1.82668 1.382887,-0.30621 -0.01024,-1.82669"
       style="fill:#f2f2f4;fill-opacity:1;fill-rule:nonzero;stroke:none;stroke-width:0.0352777"
       id="path324"
       inkscape:connector-curvature="0" />
    <path
       d="m 71.013555,90.582446 -1.380773,0.30657 0.0071,1.82209 1.3843,-0.30797 -0.01058,-1.82069"
       style="fill:#f2f2f4;fill-opacity:1;fill-rule:nonzero;stroke:none;stroke-width:0.0352777"
       id="path326"
       inkscape:connector-curvature="0" />
    <path
       d="m 53.282591,69.007976 -1.1811,0.2614 0.0053,1.55293 1.178983,-0.26105 -0.0032,-1.55328"
       style="fill:#f2f2f4;fill-opacity:1;fill-rule:nonzero;stroke:none;stroke-width:0.0352777"
       id="path328"
       inkscape:connector-curvature="0" />
    <path
       d="m 53.29388,72.512816 -1.181805,0.26141 0.0028,1.55822 1.182864,-0.25929 -0.0039,-1.56034"
       style="fill:#f2f2f4;fill-opacity:1;fill-rule:nonzero;stroke:none;stroke-width:0.0352777"
       id="path330"
       inkscape:connector-curvature="0" />
    <path
       d="m 53.300936,76.024726 -1.178278,0.25788 0.0025,1.55328 1.180394,-0.25824 -0.0046,-1.55292"
       style="fill:#f2f2f4;fill-opacity:1;fill-rule:nonzero;stroke:none;stroke-width:0.0352777"
       id="path332"
       inkscape:connector-curvature="0" />
    <path
       d="m 53.310814,79.529926 -1.178278,0.25929 0.0025,1.55681 1.183569,-0.25788 -0.0078,-1.55822"
       style="fill:#f2f2f4;fill-opacity:1;fill-rule:nonzero;stroke:none;stroke-width:0.0352777"
       id="path334"
       inkscape:connector-curvature="0" />
    <path
       d="m 53.323866,83.039006 -1.183569,0.25929 0.0053,1.55469 1.180747,-0.25823 -0.0025,-1.55575"
       style="fill:#f2f2f4;fill-opacity:1;fill-rule:nonzero;stroke:none;stroke-width:0.0352777"
       id="path336"
       inkscape:connector-curvature="0" />
    <path
       d="m 53.241316,86.499756 -1.178277,0.25999 0.0032,1.55434 1.180747,-0.25929 -0.0056,-1.55504"
       style="fill:#f2f2f4;fill-opacity:1;fill-rule:nonzero;stroke:none;stroke-width:0.0352777"
       id="path338"
       inkscape:connector-curvature="0" />
    <path
       d="m 53.254369,90.006366 -1.183569,0.25858 0.0053,1.55822 1.180748,-0.26 -0.0025,-1.5568"
       style="fill:#f2f2f4;fill-opacity:1;fill-rule:nonzero;stroke:none;stroke-width:0.0352777"
       id="path340"
       inkscape:connector-curvature="0" />
    <path
       d="m 74.395636,73.663226 v 1.88207 l 7.198784,1.80023 v -1.83586 l -7.198784,-1.84644"
       style="fill:#f2f2f4;fill-opacity:1;fill-rule:nonzero;stroke:none;stroke-width:0.0352777"
       id="path342"
       inkscape:connector-curvature="0" />
    <path
       d="m 74.395636,78.136446 v 1.87749 l 7.198784,1.37618 v -1.83444 l -7.198784,-1.41923"
       style="fill:#f2f2f4;fill-opacity:1;fill-rule:nonzero;stroke:none;stroke-width:0.0352777"
       id="path344"
       inkscape:connector-curvature="0" />
    <path
       d="m 74.395636,82.517246 v 1.87854 l 7.198784,1.02941 v -1.83515 l -7.198784,-1.0728"
       style="fill:#f2f2f4;fill-opacity:1;fill-rule:nonzero;stroke:none;stroke-width:0.0352777"
       id="path346"
       inkscape:connector-curvature="0" />
    <path
       d="m 74.395636,86.658146 v 1.87855 l 7.198784,0.82091 v -1.83268 l -7.198784,-0.86678"
       style="fill:#f2f2f4;fill-opacity:1;fill-rule:nonzero;stroke:none;stroke-width:0.0352777"
       id="path348"
       inkscape:connector-curvature="0" />
    <path
       d="m 74.395636,91.192046 v 1.8789 l 7.198784,0.35771 v -1.8355 l -7.198784,-0.40111"
       style="fill:#f2f2f4;fill-opacity:1;fill-rule:nonzero;stroke:none;stroke-width:0.0352777"
       id="path350"
       inkscape:connector-curvature="0" />
    <path
       d="m 81.59442,81.390116 0.330552,0.0632 v -1.83338 l -0.330552,-0.0642"
       style="fill:#f2f2f4;fill-opacity:1;fill-rule:nonzero;stroke:none;stroke-width:0.0352777"
       id="path352"
       inkscape:connector-curvature="0" />
  </g>
</svg>
