<?xml version="1.0" encoding="UTF-8" standalone="no"?>
<svg
   xmlns:dc="http://purl.org/dc/elements/1.1/"
   xmlns:cc="http://creativecommons.org/ns#"
   xmlns:rdf="http://www.w3.org/1999/02/22-rdf-syntax-ns#"
   xmlns:svg="http://www.w3.org/2000/svg"
   xmlns="http://www.w3.org/2000/svg"
   xmlns:sodipodi="http://sodipodi.sourceforge.net/DTD/sodipodi-0.dtd"
   xmlns:inkscape="http://www.inkscape.org/namespaces/inkscape"
   width="70.618355mm"
   height="34.43988mm"
   viewBox="0 0 70.618355 34.43988"
   version="1.1"
   id="svg1010"
   sodipodi:docname="logo2.svg"
   inkscape:version="1.0.1 (3bc2e813f5, 2020-09-07)">
  <defs
     id="defs1004" />
  <sodipodi:namedview
     id="base"
     pagecolor="#ffffff"
     bordercolor="#666666"
     borderopacity="1.0"
     inkscape:pageopacity="0.0"
     inkscape:pageshadow="2"
     inkscape:zoom="0.35"
     inkscape:cx="207.47671"
     inkscape:cy="215.49406"
     inkscape:document-units="mm"
     inkscape:current-layer="layer1"
     inkscape:document-rotation="0"
     showgrid="false"
     inkscape:window-width="1233"
     inkscape:window-height="674"
     inkscape:window-x="2510"
     inkscape:window-y="244"
     inkscape:window-maximized="0"
     fit-margin-top="0"
     fit-margin-left="0"
     fit-margin-right="0"
     fit-margin-bottom="0" />
  <metadata
     id="metadata1007">
    <rdf:RDF>
      <cc:Work
         rdf:about="">
        <dc:format>image/svg+xml</dc:format>
        <dc:type
           rdf:resource="http://purl.org/dc/dcmitype/StillImage" />
        <dc:title></dc:title>
      </cc:Work>
    </rdf:RDF>
  </metadata>
  <g
     inkscape:label="Layer 1"
     inkscape:groupmode="layer"
     id="layer1"
     transform="translate(-50.938453,-60.912435)">
    <path
       d="m 80.380228,69.711015 v 25.51183 H 66.89953 v -29.03961 l 9.657997,0.16934 v 2.6543 l 3.822701,0.70414"
       style="fill:#3b5681;fill-opacity:1;fill-rule:nonzero;stroke:none;stroke-width:0.0352777"
       id="path284" />
    <path
       d="m 75.659002,69.752645 v -1.6757 c -0.159808,0.0243 -0.321027,0.042 -0.4953,0.0448 -2.459214,0.0102 -4.913488,0.12065 -7.370233,0.18839 v 26.91271 h 11.689996 v -24.765 l -3.824463,-0.7052"
       style="fill:#3b5681;fill-opacity:1;fill-rule:nonzero;stroke:none;stroke-width:0.0352777"
       id="path286" />
    <path
       d="m 69.200347,92.528685 1.272822,-0.0878 -0.0056,-23.34437 -1.272823,0.0854 0.0056,23.34684"
       style="fill:#f2f2f4;fill-opacity:1;fill-rule:nonzero;stroke:none;stroke-width:0.0352777"
       id="path288" />
    <path
       d="m 71.441544,92.419675 1.27635,-0.0875 -0.0078,-23.34189 -1.273528,0.0836 0.0049,23.34577"
       style="fill:#f2f2f4;fill-opacity:1;fill-rule:nonzero;stroke:none;stroke-width:0.0352777"
       id="path290" />
    <path
       d="m 73.688738,92.313135 1.270353,-0.0885 -0.0053,-23.3419 -1.275998,0.0829 0.01094,23.34754"
       style="fill:#f2f2f4;fill-opacity:1;fill-rule:nonzero;stroke:none;stroke-width:0.0352777"
       id="path292" />
    <path
       d="m 98.055098,95.153695 v -21.40373 l -10.773126,-2.97215 v 24.5745 l 10.773126,-0.19862"
       style="fill:#3b5681;fill-opacity:1;fill-rule:nonzero;stroke:none;stroke-width:0.0352777"
       id="path294" />
    <path
       d="m 81.948678,72.744555 v 6.39057 l -4.573412,1.61713 v 14.46424 l 9.906706,0.13582 v -24.5745 l -5.333294,1.96674"
       style="fill:#3b5681;fill-opacity:1;fill-rule:nonzero;stroke:none;stroke-width:0.0352777"
       id="path296" />
    <path
       d="m 103.04479,60.912735 v 34.25719 h -6.107292 v -33.10466 l 6.107292,-1.15253"
       style="fill:#3b5681;fill-opacity:1;fill-rule:nonzero;stroke:none;stroke-width:0.0352777"
       id="path298" />
    <path
       d="m 97.909048,95.169925 v -32.29892 l 4.165602,-0.78387 v 33.08279 h -4.165602"
       style="fill:#3b5681;fill-opacity:1;fill-rule:nonzero;stroke:none;stroke-width:0.0352777"
       id="path300" />
    <path
       d="m 121.55681,95.104665 -18.51202,0.001 v -34.19323 l 5.1114,0.86078 v 30.30573 l 13.40062,3.02542"
       style="fill:#3b5681;fill-opacity:1;fill-rule:nonzero;stroke:none;stroke-width:0.0352777"
       id="path302" />
    <path
       d="m 68.480327,95.181575 v -28.39368 l -3.16618,-4.32929 v 30.05173 l -14.375694,2.67018 17.541874,0.001"
       style="fill:#3b5681;fill-opacity:1;fill-rule:nonzero;stroke:none;stroke-width:0.0352777"
       id="path304" />
    <path
       d="m 99.225615,69.316965 h 1.803055 v -1.80411 h -1.803055 v 1.80411"
       style="fill:#f2f2f4;fill-opacity:1;fill-rule:nonzero;stroke:none;stroke-width:0.0352777"
       id="path306" />
    <path
       d="m 99.225615,73.384845 h 1.803055 v -1.80693 h -1.803055 v 1.80693"
       style="fill:#f2f2f4;fill-opacity:1;fill-rule:nonzero;stroke:none;stroke-width:0.0352777"
       id="path308" />
    <path
       d="m 99.225615,77.448485 h 1.803055 v -1.80093 h -1.803055 v 1.80093"
       style="fill:#f2f2f4;fill-opacity:1;fill-rule:nonzero;stroke:none;stroke-width:0.0352777"
       id="path310" />
    <path
       d="m 99.225615,81.516375 h 1.803055 v -1.80376 h -1.803055 v 1.80376"
       style="fill:#f2f2f4;fill-opacity:1;fill-rule:nonzero;stroke:none;stroke-width:0.0352777"
       id="path312" />
    <path
       d="m 99.225615,85.580375 h 1.803055 v -1.80164 h -1.803055 v 1.80164"
       style="fill:#f2f2f4;fill-opacity:1;fill-rule:nonzero;stroke:none;stroke-width:0.0352777"
       id="path314" />
    <path
       d="m 99.225615,89.645425 h 1.803055 v -1.80269 h -1.803055 v 1.80269"
       style="fill:#f2f2f4;fill-opacity:1;fill-rule:nonzero;stroke:none;stroke-width:0.0352777"
       id="path316" />
    <path
       d="m 85.268315,73.934475 -1.381477,0.30726 0.0081,1.82316 1.383242,-0.30692 -0.0099,-1.8235"
       style="fill:#f2f2f4;fill-opacity:1;fill-rule:nonzero;stroke:none;stroke-width:0.0352777"
       id="path318" />
    <path
       d="m 85.290895,78.049625 -1.385713,0.30445 0.01024,1.82738 1.383948,-0.3048 -0.0085,-1.82703"
       style="fill:#f2f2f4;fill-opacity:1;fill-rule:nonzero;stroke:none;stroke-width:0.0352777"
       id="path320" />
    <path
       d="m 85.311707,82.165835 -1.38571,0.30409 0.01236,1.82281 1.3843,-0.30516 -0.01093,-1.82174"
       style="fill:#f2f2f4;fill-opacity:1;fill-rule:nonzero;stroke:none;stroke-width:0.0352777"
       id="path322" />
    <path
       d="m 85.33217,86.277455 -1.383242,0.30622 0.01058,1.82668 1.382887,-0.30621 -0.01024,-1.82669"
       style="fill:#f2f2f4;fill-opacity:1;fill-rule:nonzero;stroke:none;stroke-width:0.0352777"
       id="path324" />
    <path
       d="m 85.35263,90.394725 -1.380773,0.30657 0.0071,1.82209 1.3843,-0.30797 -0.01058,-1.82069"
       style="fill:#f2f2f4;fill-opacity:1;fill-rule:nonzero;stroke:none;stroke-width:0.0352777"
       id="path326" />
    <path
       d="m 67.621666,68.820255 -1.1811,0.2614 0.0053,1.55293 1.178983,-0.26105 -0.0032,-1.55328"
       style="fill:#f2f2f4;fill-opacity:1;fill-rule:nonzero;stroke:none;stroke-width:0.0352777"
       id="path328" />
    <path
       d="m 67.632955,72.325095 -1.181805,0.26141 0.0028,1.55822 1.182864,-0.25929 -0.0039,-1.56034"
       style="fill:#f2f2f4;fill-opacity:1;fill-rule:nonzero;stroke:none;stroke-width:0.0352777"
       id="path330" />
    <path
       d="m 67.640011,75.837005 -1.178278,0.25788 0.0025,1.55328 1.180394,-0.25824 -0.0046,-1.55292"
       style="fill:#f2f2f4;fill-opacity:1;fill-rule:nonzero;stroke:none;stroke-width:0.0352777"
       id="path332" />
    <path
       d="m 67.649889,79.342205 -1.178278,0.25929 0.0025,1.55681 1.183569,-0.25788 -0.0078,-1.55822"
       style="fill:#f2f2f4;fill-opacity:1;fill-rule:nonzero;stroke:none;stroke-width:0.0352777"
       id="path334" />
    <path
       d="m 67.662941,82.851285 -1.183569,0.25929 0.0053,1.55469 1.180747,-0.25823 -0.0025,-1.55575"
       style="fill:#f2f2f4;fill-opacity:1;fill-rule:nonzero;stroke:none;stroke-width:0.0352777"
       id="path336" />
    <path
       d="m 67.580391,86.312035 -1.178277,0.25999 0.0032,1.55434 1.180747,-0.25929 -0.0056,-1.55504"
       style="fill:#f2f2f4;fill-opacity:1;fill-rule:nonzero;stroke:none;stroke-width:0.0352777"
       id="path338" />
    <path
       d="m 67.593444,89.818645 -1.183569,0.25858 0.0053,1.55822 1.180748,-0.26 -0.0025,-1.5568"
       style="fill:#f2f2f4;fill-opacity:1;fill-rule:nonzero;stroke:none;stroke-width:0.0352777"
       id="path340" />
    <path
       d="m 88.734711,73.475505 v 1.88207 l 7.198784,1.80023 v -1.83586 l -7.198784,-1.84644"
       style="fill:#f2f2f4;fill-opacity:1;fill-rule:nonzero;stroke:none;stroke-width:0.0352777"
       id="path342" />
    <path
       d="m 88.734711,77.948725 v 1.87749 l 7.198784,1.37618 v -1.83444 l -7.198784,-1.41923"
       style="fill:#f2f2f4;fill-opacity:1;fill-rule:nonzero;stroke:none;stroke-width:0.0352777"
       id="path344" />
    <path
       d="m 88.734711,82.329525 v 1.87854 l 7.198784,1.02941 v -1.83515 l -7.198784,-1.0728"
       style="fill:#f2f2f4;fill-opacity:1;fill-rule:nonzero;stroke:none;stroke-width:0.0352777"
       id="path346" />
    <path
       d="m 88.734711,86.470425 v 1.87855 l 7.198784,0.82091 v -1.83268 l -7.198784,-0.86678"
       style="fill:#f2f2f4;fill-opacity:1;fill-rule:nonzero;stroke:none;stroke-width:0.0352777"
       id="path348" />
    <path
       d="m 88.734711,91.004325 v 1.8789 l 7.198784,0.35771 v -1.8355 l -7.198784,-0.40111"
       style="fill:#f2f2f4;fill-opacity:1;fill-rule:nonzero;stroke:none;stroke-width:0.0352777"
       id="path350" />
    <path
       d="m 95.933495,81.202395 0.330552,0.0632 v -1.83338 l -0.330552,-0.0642"
       style="fill:#f2f2f4;fill-opacity:1;fill-rule:nonzero;stroke:none;stroke-width:0.0352777"
       id="path352" />
  </g>
</svg>
